<?xml version="1.0" standalone="no"?>
<!DOCTYPE svg PUBLIC "-//W3C//DTD SVG 20010904//EN"
 "http://www.w3.org/TR/2001/REC-SVG-20010904/DTD/svg10.dtd">
<svg version="1.0" xmlns="http://www.w3.org/2000/svg"
 width="202.000000pt" height="202.000000pt" viewBox="0 0 202.000000 202.000000"
 preserveAspectRatio="xMidYMid meet">
<metadata>
Created by potrace 1.11, written by Peter Selinger 2001-2013
</metadata>
<g transform="translate(0.000000,202.000000) scale(0.100000,-0.100000)"
fill="#000000" stroke="none">
<path d="M882 1999 c-90 -11 -204 -45 -289 -84 -361 -167 -589 -533 -578 -928
3 -126 13 -177 58 -312 91 -273 329 -511 602 -602 180 -60 292 -71 493 -48 62
7 215 56 287 92 148 74 291 200 383 337 101 150 161 338 167 521 8 284 -93
541 -291 739 -145 145 -331 242 -539 281 -54 10 -229 13 -293 4z"/>
</g>
</svg>
